<?xml version="1.0" encoding="UTF-8" standalone="no"?>
<!DOCTYPE svg PUBLIC "-//W3C//DTD SVG 1.1//EN" "http://www.w3.org/Graphics/SVG/1.1/DTD/svg11.dtd">
<svg width="100%" height="100%" viewBox="0 0 403 403" version="1.1" xmlns="http://www.w3.org/2000/svg" xmlns:xlink="http://www.w3.org/1999/xlink" xml:space="preserve" xmlns:serif="http://www.serif.com/" style="fill-rule:evenodd;clip-rule:evenodd;stroke-linejoin:round;stroke-miterlimit:1.41421;">
    <g id="layer101">
        <g transform="matrix(1.20103,0,0,1.20103,-37.5708,-32.1711)">
            <path d="M132.9,298.8C122.9,286.1 119.8,281.2 120.9,279.2C122.4,276.4 136.7,263.1 144.5,257.3C162.8,243.6 184.2,233.1 215,222.5C225.7,218.9 239.2,213.6 245,210.9C269.9,199.1 292.1,179.8 307.1,157C311.6,150.3 309.4,159.5 303.1,173.7C295.6,190.9 287.4,202.8 274.1,216C258.9,231 245.3,239.4 218.8,249.9C189.1,261.6 167,275.2 148.9,292.7L137.1,304.1L132.9,298.8Z" style="fill:rgb(45,172,219);fill-rule:nonzero;"/>
        </g>
        <g transform="matrix(1.20103,0,0,1.20103,-37.5708,-32.1711)">
            <path d="M111.4,268.8C111,268.1 111.1,268 111.8,268.4C113,269.1 113.4,270 112.6,270C112.3,270 111.8,269.5 111.4,268.8Z" style="fill:rgb(45,172,219);fill-rule:nonzero;"/>
        </g>
        <g transform="matrix(1.20103,0,0,1.20103,-37.5708,-32.1711)">
            <path d="M135.5,254C135.8,253.5 136.3,253 136.6,253C136.9,253 136.8,253.5 136.5,254C136.2,254.6 135.7,255 135.4,255C135.1,255 135.2,254.6 135.5,254Z" style="fill:rgb(45,172,219);fill-rule:nonzero;"/>
        </g>
        <g transform="matrix(1.20103,0,0,1.20103,-37.5708,-32.1711)">
            <path d="M143.5,248C143.8,247.5 144.3,247 144.6,247C144.9,247 144.8,247.5 144.5,248C144.2,248.6 143.7,249 143.4,249C143.1,249 143.2,248.6 143.5,248Z" style="fill:rgb(45,172,219);fill-rule:nonzero;"/>
        </g>
        <g transform="matrix(1.20103,0,0,1.20103,-37.5708,-32.1711)">
            <path d="M261.5,192C261.8,191.5 262.3,191 262.6,191C262.9,191 262.8,191.5 262.5,192C262.2,192.6 261.7,193 261.4,193C261.1,193 261.2,192.6 261.5,192Z" style="fill:rgb(45,172,219);fill-rule:nonzero;"/>
        </g>
        <g transform="matrix(1.20103,0,0,1.20103,-37.5708,-32.1711)">
            <path d="M269,186.6C269,186.4 269.8,185.6 270.8,184.9C272.3,183.6 272.4,183.7 271.1,185.3C269.8,186.9 269,187.4 269,186.6Z" style="fill:rgb(45,172,219);fill-rule:nonzero;"/>
        </g>
        <g transform="matrix(1.20103,0,0,1.20103,-37.5708,-32.1711)">
            <path d="M278,178.6C278,178.4 278.8,177.6 279.8,176.9C281.3,175.6 281.4,175.7 280.1,177.3C278.8,178.9 278,179.4 278,178.6Z" style="fill:rgb(45,172,219);fill-rule:nonzero;"/>
        </g>
        <g transform="matrix(1.20103,0,0,1.20103,-37.5708,-32.1711)">
            <path d="M290.5,165C290.8,164.5 291.3,164 291.6,164C291.9,164 291.8,164.5 291.5,165C291.2,165.6 290.7,166 290.4,166C290.1,166 290.2,165.6 290.5,165Z" style="fill:rgb(45,172,219);fill-rule:nonzero;"/>
        </g>
        <g transform="matrix(1.20103,0,0,1.20103,-37.5708,-32.1711)">
            <path d="M299.5,153C299.8,152.5 300.3,152 300.6,152C300.9,152 300.8,152.5 300.5,153C300.2,153.6 299.7,154 299.4,154C299.1,154 299.2,153.6 299.5,153Z" style="fill:rgb(45,172,219);fill-rule:nonzero;"/>
        </g>
        <g transform="matrix(1.20103,0,0,1.20103,-37.5708,-32.1711)">
            <path d="M265.5,152C265.8,151.5 266.3,151 266.6,151C266.9,151 266.8,151.5 266.5,152C266.2,152.6 265.7,153 265.4,153C265.1,153 265.2,152.6 265.5,152Z" style="fill:rgb(45,172,219);fill-rule:nonzero;"/>
        </g>
        <g transform="matrix(1.20103,0,0,1.20103,-37.5708,-32.1711)">
            <path d="M295,125.6C295,125.4 295.8,124.6 296.8,123.9C298.3,122.6 298.4,122.7 297.1,124.3C295.8,125.9 295,126.4 295,125.6Z" style="fill:rgb(45,172,219);fill-rule:nonzero;"/>
        </g>
        <g transform="matrix(1.20103,0,0,1.20103,-37.5708,-32.1711)">
            <path d="M300.5,119C300.8,118.5 301.3,118 301.6,118C301.9,118 301.8,118.5 301.5,119C301.2,119.6 300.7,120 300.4,120C300.1,120 300.2,119.6 300.5,119Z" style="fill:rgb(45,172,219);fill-rule:nonzero;"/>
        </g>
        <g transform="matrix(1.20103,0,0,1.20103,-37.5708,-32.1711)">
            <path d="M308.5,108C308.8,107.5 309.3,107 309.6,107C309.9,107 309.8,107.5 309.5,108C309.2,108.6 308.7,109 308.4,109C308.1,109 308.2,108.6 308.5,108Z" style="fill:rgb(45,172,219);fill-rule:nonzero;"/>
        </g>
        <g transform="matrix(1.20103,0,0,1.20103,-37.5708,-32.1711)">
            <path d="M320,108C320,107.3 320.3,107 320.7,107.3C321,107.7 321,108.3 320.7,108.7C320.3,109 320,108.7 320,108Z" style="fill:rgb(45,172,219);fill-rule:nonzero;"/>
        </g>
    </g>
    <g id="layer102" transform="matrix(1.20103,0,0,1.20103,-37.5708,-32.1711)">
        <path d="M201.2,355.6C190.7,351.3 179.7,344.7 169,336C160.1,328.9 143,311.9 143,310.3C143,309.2 158.8,293.4 164.5,288.9C178.4,277.8 202.4,264.6 223,256.7C247.8,247.1 264.9,236.6 280.3,221.5C282.4,219.5 284.3,218 284.6,218.2C285.2,218.9 264.4,264.4 250.6,292.5C232.1,330.3 214.8,359 210.6,359C210,359 205.8,357.5 201.2,355.6Z" style="fill:rgb(110,189,70);fill-rule:nonzero;"/>
    </g>
    <g id="layer103">
        <g transform="matrix(1.20103,0,0,1.20103,-37.5708,-32.1711)">
            <path d="M114.3,272.7C113.9,272.1 113.1,270.8 112.5,269.8C112,268.9 109.2,264.4 106.4,259.8C103.6,255.3 100.2,249.6 98.9,247.2L96.6,242.9L103.6,235.9C110.9,228.5 122.3,219.2 132.7,212.1C149.3,201 181.5,186.7 206,179.5C217.3,176.2 226,173.1 234.5,169.4C236.2,168.7 238.8,167.6 240.4,167C245.4,165.1 265.1,152.9 272.5,147.2C279.9,141.4 302,119.6 302,118.1C302,117.6 303.7,115 305.8,112.3C309.9,106.9 310.2,106.4 317.8,93L323.2,83.5L322.6,93.4C322.3,98.8 321.6,104.7 321.1,106.4C315.6,124.2 309,139.4 302.6,148.9C300.6,151.8 299,154.4 299,154.7C299,155.2 296.3,158.7 290.6,165.8C287.7,169.4 273.8,182.9 269.3,186.6C265.6,189.5 256.4,195.7 250.5,199.3C243.2,203.6 231.3,208.6 215.5,214C195.2,220.8 183.6,225.5 171.5,231.7C161.1,237 146,246.2 141.3,249.9C139.5,251.3 136.4,253.9 134.4,255.5C132.3,257.2 127.1,262 122.9,266.2C117.5,271.6 114.8,273.6 114.3,272.7Z" style="fill:rgb(56,103,175);fill-rule:nonzero;"/>
        </g>
        <g transform="matrix(1.20103,0,0,1.20103,-37.5708,-32.1711)">
            <path d="M90.1,230.3C88.5,227.4 84.2,218.6 80.5,210.9L73.9,196.8L76.6,193.2C81.2,187 94.1,174.9 104,167.3C128.6,148.7 159.8,133.2 202,118.5C253.9,100.5 276.3,83.7 308,39.2C313.2,31.8 315.5,29.2 316.1,30.2C317.2,32.2 320.9,50.6 321.6,57.9C322.2,63.4 321.9,64.7 318.1,73.9C298.2,120.9 262,153.5 212.1,169.2C171.3,182 150.3,191.3 126.9,207.1C116.5,214.1 107.7,221.3 99.3,229.6L93,235.8L90.1,230.3Z" style="fill:rgb(56,103,175);fill-rule:nonzero;"/>
        </g>
    </g>
</svg>
